<svg xmlns="http://www.w3.org/2000/svg" viewBox="0 0 480 480">
  <rect width="480" height="480" fill="#FFF7ED"/>
  <rect x="70" y="110" width="130" height="90" rx="14" fill="#FFFFFF" stroke="#FED7AA" stroke-width="2"/>
  <circle cx="102" cy="140" r="10" fill="#FB923C"/>
  <rect x="122" y="134" width="60" height="10" rx="5" fill="#FDBA74"/>
  <rect x="90" y="160" width="120" height="8" rx="4" fill="#FFEDD5"/>
  <rect x="280" y="110" width="130" height="90" rx="14" fill="#FFFFFF" stroke="#FED7AA" stroke-width="2"/>
  <circle cx="312" cy="140" r="10" fill="#FDBA74"/>
  <rect x="332" y="134" width="60" height="10" rx="5" fill="#FED7AA"/>
  <rect x="300" y="160" width="90" height="8" rx="4" fill="#FFEDD5"/>
  <path d="M200 155 L280 155" stroke="#FB923C" stroke-width="4" marker-end="url(#arrow)"/>
  <defs>
    <marker id="arrow" markerWidth="10" markerHeight="10" refX="6" refY="3" orient="auto">
      <path d="M0,0 L6,3 L0,6 Z" fill="#FB923C"/>
    </marker>
  </defs>
  <rect x="150" y="260" width="180" height="90" rx="14" fill="#FFFFFF" stroke="#FED7AA" stroke-width="2"/>
  <rect x="175" y="285" width="130" height="10" rx="5" fill="#FDBA74"/>
  <rect x="175" y="305" width="90" height="8" rx="4" fill="#FFEDD5"/>
  <rect x="175" y="322" width="110" height="8" rx="4" fill="#FFEDD5"/>
  <path d="M240 200 L240 260" stroke="#FB923C" stroke-width="4" marker-end="url(#arrow)"/>
</svg>
