<svg xmlns="http://www.w3.org/2000/svg" viewBox="0 0 800 450" width="800" height="450">
  <!-- 전체 배경 -->
  <rect width="800" height="450" fill="#F6F8FB"/>

  <!-- ── 사이드바 ── -->
  <rect x="0" y="0" width="188" height="450" fill="#FFFFFF" stroke="#E8EDF2" stroke-width="1"/>

  <!-- 로고 영역 -->
  <rect x="14" y="14" width="30" height="30" rx="6" fill="#1E9BD7"/>
  <text x="20" y="34" font-family="Arial,sans-serif" font-size="14" font-weight="900" fill="#FFFFFF">J</text>
  <text x="48" y="27" font-family="Arial,sans-serif" font-size="12" font-weight="700" fill="#1E9BD7">JobFlow</text>
  <text x="48" y="40" font-family="Arial,sans-serif" font-size="7.5" fill="#94A3B8">취업 준비 관리 대시보드</text>

  <!-- 구분선 -->
  <line x1="0" y1="54" x2="188" y2="54" stroke="#F1F5F9" stroke-width="1"/>

  <!-- 사용자 아바타 -->
  <circle cx="28" cy="76" r="14" fill="#1E9BD7"/>
  <text x="28" y="81" font-family="Arial,sans-serif" font-size="12" font-weight="700" fill="#FFFFFF" text-anchor="middle">G</text>
  <text x="50" y="72" font-family="Arial,sans-serif" font-size="9" font-weight="600" fill="#1A1A2E">게스트 모드</text>
  <text x="50" y="84" font-family="Arial,sans-serif" font-size="8" fill="#94A3B8">읽기 전용</text>

  <!-- 구분선 -->
  <line x1="0" y1="98" x2="188" y2="98" stroke="#F1F5F9" stroke-width="1"/>

  <!-- 네비게이션: 대시보드 (활성) -->
  <rect x="8" y="106" width="172" height="28" rx="7" fill="#1E9BD7"/>
  <rect x="18" y="115" width="10" height="10" rx="2" fill="rgba(255,255,255,0.8)"/>
  <text x="34" y="124" font-family="Arial,sans-serif" font-size="10" font-weight="700" fill="#FFFFFF">대시보드</text>

  <!-- 지원 현황 -->
  <rect x="18" y="143" width="10" height="10" rx="2" fill="#CBD5E1"/>
  <text x="34" y="152" font-family="Arial,sans-serif" font-size="10" fill="#64748B">지원 현황</text>

  <!-- 전형 보드 -->
  <rect x="18" y="163" width="10" height="10" rx="2" fill="#CBD5E1"/>
  <text x="34" y="172" font-family="Arial,sans-serif" font-size="10" fill="#64748B">전형 보드</text>

  <!-- 체크리스트 -->
  <rect x="18" y="183" width="10" height="10" rx="2" fill="#CBD5E1"/>
  <text x="34" y="192" font-family="Arial,sans-serif" font-size="10" fill="#64748B">체크리스트</text>

  <!-- 면접 메모 -->
  <rect x="18" y="203" width="10" height="10" rx="2" fill="#CBD5E1"/>
  <text x="34" y="212" font-family="Arial,sans-serif" font-size="10" fill="#64748B">면접 메모</text>

  <!-- AI 프롬프트 -->
  <rect x="18" y="223" width="10" height="10" rx="2" fill="#CBD5E1"/>
  <text x="34" y="232" font-family="Arial,sans-serif" font-size="10" fill="#64748B">AI 프롬프트</text>

  <!-- 설정 -->
  <rect x="18" y="243" width="10" height="10" rx="2" fill="#CBD5E1"/>
  <text x="34" y="252" font-family="Arial,sans-serif" font-size="10" fill="#64748B">설정</text>

  <!-- ── 헤더 ── -->
  <rect x="188" y="0" width="612" height="48" fill="#FFFFFF" stroke="#E8EDF2" stroke-width="1"/>
  <text x="206" y="29" font-family="Arial,sans-serif" font-size="14" font-weight="700" fill="#1A1A2E">대시보드</text>
  <!-- 게스트 모드 Chip -->
  <rect x="700" y="14" width="70" height="20" rx="10" fill="none" stroke="#F59E0B" stroke-width="1.2"/>
  <text x="735" y="28" font-family="Arial,sans-serif" font-size="8" font-weight="600" fill="#F59E0B" text-anchor="middle">게스트 모드</text>

  <!-- ── 게스트 배너 ── -->
  <rect x="196" y="56" width="592" height="24" rx="6" fill="#FFF8E1" stroke="#F59E0B" stroke-width="1"/>
  <text x="210" y="72" font-family="Arial,sans-serif" font-size="8.5" fill="#92400E">게스트 모드에서는 샘플 데이터를 체험할 수 있으며, 저장/수정 기능은 제한됩니다.</text>

  <!-- ── 요약 카드 4개 ── -->
  <!-- 카드1: 총 지원 -->
  <rect x="196" y="90" width="138" height="68" rx="8" fill="#FFFFFF" stroke="#D6E8F5" stroke-width="1"/>
  <text x="210" y="108" font-family="Arial,sans-serif" font-size="7.5" font-weight="600" fill="#94A3B8" letter-spacing="0.5">총 지원</text>
  <text x="210" y="136" font-family="Arial,sans-serif" font-size="26" font-weight="700" fill="#1E9BD7">5</text>
  <text x="210" y="151" font-family="Arial,sans-serif" font-size="7.5" fill="#94A3B8">개 회사</text>
  <rect x="302" y="100" width="24" height="24" rx="5" fill="#E0F4FF"/>
  <rect x="309" y="107" width="10" height="10" rx="2" fill="#1E9BD7"/>

  <!-- 카드2: 진행 중 -->
  <rect x="344" y="90" width="138" height="68" rx="8" fill="#FFFFFF" stroke="#D6E8F5" stroke-width="1"/>
  <text x="358" y="108" font-family="Arial,sans-serif" font-size="7.5" font-weight="600" fill="#94A3B8" letter-spacing="0.5">진행 중</text>
  <text x="358" y="136" font-family="Arial,sans-serif" font-size="26" font-weight="700" fill="#3B82F6">3</text>
  <text x="358" y="151" font-family="Arial,sans-serif" font-size="7.5" fill="#94A3B8">전형 진행</text>
  <rect x="450" y="100" width="24" height="24" rx="5" fill="#EFF6FF"/>
  <rect x="457" y="107" width="10" height="10" rx="2" fill="#3B82F6"/>

  <!-- 카드3: 면접 예정 -->
  <rect x="492" y="90" width="138" height="68" rx="8" fill="#FFFFFF" stroke="#D6E8F5" stroke-width="1"/>
  <text x="506" y="108" font-family="Arial,sans-serif" font-size="7.5" font-weight="600" fill="#94A3B8" letter-spacing="0.5">면접 예정</text>
  <text x="506" y="136" font-family="Arial,sans-serif" font-size="26" font-weight="700" fill="#8B5CF6">1</text>
  <text x="506" y="151" font-family="Arial,sans-serif" font-size="7.5" fill="#94A3B8">건</text>
  <rect x="598" y="100" width="24" height="24" rx="5" fill="#F5F3FF"/>
  <rect x="605" y="107" width="10" height="10" rx="2" fill="#8B5CF6"/>

  <!-- 카드4: 체크리스트 -->
  <rect x="640" y="90" width="148" height="68" rx="8" fill="#FFFFFF" stroke="#D6E8F5" stroke-width="1"/>
  <text x="654" y="108" font-family="Arial,sans-serif" font-size="7.5" font-weight="600" fill="#94A3B8" letter-spacing="0.5">체크리스트</text>
  <text x="654" y="136" font-family="Arial,sans-serif" font-size="24" font-weight="700" fill="#22C55E">56%</text>
  <text x="654" y="151" font-family="Arial,sans-serif" font-size="7.5" fill="#94A3B8">5/9 완료</text>
  <rect x="764" y="100" width="16" height="16" rx="3" fill="#F0FDF4"/>
  <rect x="767" y="103" width="10" height="10" rx="2" fill="#22C55E"/>

  <!-- ── 최근 지원 현황 카드 ── -->
  <rect x="196" y="170" width="370" height="200" rx="8" fill="#FFFFFF" stroke="#D6E8F5" stroke-width="1"/>
  <text x="212" y="191" font-family="Arial,sans-serif" font-size="11" font-weight="700" fill="#1A1A2E">최근 지원 현황</text>
  <text x="508" y="191" font-family="Arial,sans-serif" font-size="9" fill="#1E9BD7">전체 보기</text>
  <line x1="208" y1="198" x2="558" y2="198" stroke="#F1F5F9" stroke-width="1"/>

  <!-- 행 1: 테크기업 A -->
  <text x="212" y="216" font-family="Arial,sans-serif" font-size="10" font-weight="700" fill="#1A1A2E">테크기업 A</text>
  <text x="212" y="228" font-family="Arial,sans-serif" font-size="8.5" fill="#94A3B8">UX/UI 디자이너</text>
  <rect x="466" y="206" width="62" height="18" rx="9" fill="#F5F3FF"/>
  <text x="497" y="219" font-family="Arial,sans-serif" font-size="8" font-weight="600" fill="#8B5CF6" text-anchor="middle">면접 예정</text>
  <line x1="208" y1="236" x2="558" y2="236" stroke="#F1F5F9" stroke-width="1"/>

  <!-- 행 2: UX 스타트업 B -->
  <text x="212" y="253" font-family="Arial,sans-serif" font-size="10" font-weight="700" fill="#1A1A2E">UX 스타트업 B</text>
  <text x="212" y="265" font-family="Arial,sans-serif" font-size="8.5" fill="#94A3B8">프로덕트 디자이너</text>
  <rect x="466" y="243" width="62" height="18" rx="9" fill="#FFFBEB"/>
  <text x="497" y="256" font-family="Arial,sans-serif" font-size="8" font-weight="600" fill="#F59E0B" text-anchor="middle">서류 진행</text>
  <line x1="208" y1="273" x2="558" y2="273" stroke="#F1F5F9" stroke-width="1"/>

  <!-- 행 3: 플랫폼 기업 C -->
  <text x="212" y="290" font-family="Arial,sans-serif" font-size="10" font-weight="700" fill="#1A1A2E">플랫폼 기업 C</text>
  <text x="212" y="302" font-family="Arial,sans-serif" font-size="8.5" fill="#94A3B8">웹 퍼블리셔</text>
  <rect x="466" y="280" width="62" height="18" rx="9" fill="#E0F4FF"/>
  <text x="497" y="293" font-family="Arial,sans-serif" font-size="8" font-weight="600" fill="#1E9BD7" text-anchor="middle">지원 완료</text>
  <line x1="208" y1="310" x2="558" y2="310" stroke="#F1F5F9" stroke-width="1"/>

  <!-- 행 4: 커머스 기업 D -->
  <text x="212" y="327" font-family="Arial,sans-serif" font-size="10" font-weight="700" fill="#1A1A2E">커머스 기업 D</text>
  <text x="212" y="339" font-family="Arial,sans-serif" font-size="8.5" fill="#94A3B8">프론트엔드 개발자</text>
  <rect x="480" y="317" width="48" height="18" rx="9" fill="#F1F5F9"/>
  <text x="504" y="330" font-family="Arial,sans-serif" font-size="8" font-weight="600" fill="#94A3B8" text-anchor="middle">관심</text>
  <line x1="208" y1="347" x2="558" y2="347" stroke="#F1F5F9" stroke-width="1"/>

  <!-- 행 5: 에듀테크 기업 E -->
  <text x="212" y="363" font-family="Arial,sans-serif" font-size="10" font-weight="700" fill="#1A1A2E">에듀테크 기업 E</text>
  <text x="212" y="375" font-family="Arial,sans-serif" font-size="8.5" fill="#94A3B8">UI 디자이너</text>
  <rect x="466" y="354" width="62" height="18" rx="9" fill="#FEF2F2"/>
  <text x="497" y="367" font-family="Arial,sans-serif" font-size="8" font-weight="600" fill="#EF4444" text-anchor="middle">불합격</text>

  <!-- ── 우측 카드 영역 ── -->
  <!-- 상태별 현황 -->
  <rect x="578" y="170" width="210" height="170" rx="8" fill="#FFFFFF" stroke="#D6E8F5" stroke-width="1"/>
  <text x="594" y="191" font-family="Arial,sans-serif" font-size="11" font-weight="700" fill="#1A1A2E">상태별 현황</text>

  <text x="594" y="212" font-family="Arial,sans-serif" font-size="8.5" font-weight="600" fill="#1A1A2E">면접 예정</text>
  <text x="756" y="212" font-family="Arial,sans-serif" font-size="7.5" fill="#94A3B8" text-anchor="end">1건 (20%)</text>
  <rect x="594" y="216" width="168" height="5" rx="2.5" fill="#EDE9FE"/>
  <rect x="594" y="216" width="34" height="5" rx="2.5" fill="#8B5CF6"/>

  <text x="594" y="234" font-family="Arial,sans-serif" font-size="8.5" font-weight="600" fill="#1A1A2E">서류 진행</text>
  <text x="756" y="234" font-family="Arial,sans-serif" font-size="7.5" fill="#94A3B8" text-anchor="end">1건 (20%)</text>
  <rect x="594" y="238" width="168" height="5" rx="2.5" fill="#FEF3C7"/>
  <rect x="594" y="238" width="34" height="5" rx="2.5" fill="#F59E0B"/>

  <text x="594" y="256" font-family="Arial,sans-serif" font-size="8.5" font-weight="600" fill="#1A1A2E">지원 완료</text>
  <text x="756" y="256" font-family="Arial,sans-serif" font-size="7.5" fill="#94A3B8" text-anchor="end">1건 (20%)</text>
  <rect x="594" y="260" width="168" height="5" rx="2.5" fill="#E0F4FF"/>
  <rect x="594" y="260" width="34" height="5" rx="2.5" fill="#1E9BD7"/>

  <text x="594" y="278" font-family="Arial,sans-serif" font-size="8.5" font-weight="600" fill="#1A1A2E">관심</text>
  <text x="756" y="278" font-family="Arial,sans-serif" font-size="7.5" fill="#94A3B8" text-anchor="end">1건 (20%)</text>
  <rect x="594" y="282" width="168" height="5" rx="2.5" fill="#F1F5F9"/>
  <rect x="594" y="282" width="34" height="5" rx="2.5" fill="#94A3B8"/>

  <text x="594" y="300" font-family="Arial,sans-serif" font-size="8.5" font-weight="600" fill="#1A1A2E">불합격</text>
  <text x="756" y="300" font-family="Arial,sans-serif" font-size="7.5" fill="#94A3B8" text-anchor="end">1건 (20%)</text>
  <rect x="594" y="304" width="168" height="5" rx="2.5" fill="#FEE2E2"/>
  <rect x="594" y="304" width="34" height="5" rx="2.5" fill="#EF4444"/>

  <!-- 체크리스트 진행률 -->
  <rect x="578" y="350" width="210" height="80" rx="8" fill="#FFFFFF" stroke="#D6E8F5" stroke-width="1"/>
  <text x="594" y="370" font-family="Arial,sans-serif" font-size="11" font-weight="700" fill="#1A1A2E">체크리스트 진행률</text>
  <text x="760" y="370" font-family="Arial,sans-serif" font-size="9" fill="#1E9BD7" text-anchor="end">보기</text>
  <rect x="594" y="378" width="178" height="10" rx="5" fill="#F1F5F9"/>
  <rect x="594" y="378" width="100" height="10" rx="5" fill="#22C55E"/>
  <text x="594" y="402" font-family="Arial,sans-serif" font-size="8" fill="#94A3B8">5/9 항목 완료 (56%)</text>

  <!-- 하단 브랜딩 바 -->
  <rect x="0" y="432" width="800" height="18" fill="#1E9BD7" opacity="0.07"/>
  <text x="400" y="444" font-family="Arial,sans-serif" font-size="8.5" fill="#1578AA" text-anchor="middle" font-weight="600">JobFlow Dashboard · React + Vite + MUI + Supabase · 취업 준비 관리 대시보드</text>
</svg>
