<svg xmlns="http://www.w3.org/2000/svg" viewBox="0 0 800 450" width="800" height="450">
  <!-- 배경 -->
  <rect width="800" height="450" fill="#F6F8FB"/>

  <!-- 사이드바 -->
  <rect x="0" y="0" width="180" height="450" fill="#FFFFFF" stroke="#E2EAF0" stroke-width="1"/>
  <!-- 로고 -->
  <rect x="16" y="18" width="8" height="20" rx="2" fill="#1E9BD7"/>
  <rect x="28" y="18" width="8" height="20" rx="2" fill="#1578AA"/>
  <text x="42" y="33" font-family="Arial, sans-serif" font-size="13" font-weight="700" fill="#1A1A2E">JobFlow</text>
  <text x="16" y="50" font-family="Arial, sans-serif" font-size="9" fill="#94A3B8">취업 준비 관리 대시보드</text>

  <!-- 사이드바 메뉴 -->
  <rect x="8" y="64" width="164" height="30" rx="6" fill="#1E9BD7"/>
  <rect x="20" y="74" width="10" height="10" rx="2" fill="white" opacity="0.8"/>
  <text x="36" y="83" font-family="Arial, sans-serif" font-size="11" font-weight="600" fill="white">Dashboard</text>

  <rect x="20" y="106" width="10" height="10" rx="2" fill="#94A3B8" opacity="0.5"/>
  <text x="36" y="115" font-family="Arial, sans-serif" font-size="11" fill="#64748B">Applications</text>

  <rect x="20" y="130" width="10" height="10" rx="2" fill="#94A3B8" opacity="0.5"/>
  <text x="36" y="139" font-family="Arial, sans-serif" font-size="11" fill="#64748B">Kanban</text>

  <rect x="20" y="154" width="10" height="10" rx="2" fill="#94A3B8" opacity="0.5"/>
  <text x="36" y="163" font-family="Arial, sans-serif" font-size="11" fill="#64748B">Checklist</text>

  <rect x="20" y="178" width="10" height="10" rx="2" fill="#94A3B8" opacity="0.5"/>
  <text x="36" y="187" font-family="Arial, sans-serif" font-size="11" fill="#64748B">Interview</text>

  <rect x="20" y="202" width="10" height="10" rx="2" fill="#94A3B8" opacity="0.5"/>
  <text x="36" y="211" font-family="Arial, sans-serif" font-size="11" fill="#64748B">AI Prompt</text>

  <!-- 헤더 -->
  <rect x="180" y="0" width="620" height="52" fill="#FFFFFF" stroke="#E2EAF0" stroke-width="1"/>
  <text x="200" y="32" font-family="Arial, sans-serif" font-size="15" font-weight="700" fill="#1A1A2E">Dashboard</text>

  <!-- 요약 카드 4개 -->
  <!-- 카드1: 총 지원 -->
  <rect x="196" y="68" width="132" height="78" rx="8" fill="#FFFFFF" stroke="#D6E8F5" stroke-width="1"/>
  <text x="210" y="88" font-family="Arial, sans-serif" font-size="8" font-weight="600" fill="#94A3B8">총 지원</text>
  <text x="210" y="116" font-family="Arial, sans-serif" font-size="28" font-weight="700" fill="#1E9BD7">12</text>
  <text x="210" y="132" font-family="Arial, sans-serif" font-size="8" fill="#94A3B8">개 회사</text>
  <rect x="290" y="76" width="28" height="28" rx="6" fill="#E0F4FF"/>
  <rect x="299" y="84" width="10" height="12" rx="2" fill="#1E9BD7"/>

  <!-- 카드2: 진행 중 -->
  <rect x="340" y="68" width="132" height="78" rx="8" fill="#FFFFFF" stroke="#D6E8F5" stroke-width="1"/>
  <text x="354" y="88" font-family="Arial, sans-serif" font-size="8" font-weight="600" fill="#94A3B8">진행 중</text>
  <text x="354" y="116" font-family="Arial, sans-serif" font-size="28" font-weight="700" fill="#3B82F6">5</text>
  <text x="354" y="132" font-family="Arial, sans-serif" font-size="8" fill="#94A3B8">전형 진행</text>
  <rect x="434" y="76" width="28" height="28" rx="6" fill="#EFF6FF"/>
  <rect x="441" y="84" width="14" height="12" rx="2" fill="#3B82F6"/>

  <!-- 카드3: 면접 예정 -->
  <rect x="484" y="68" width="132" height="78" rx="8" fill="#FFFFFF" stroke="#D6E8F5" stroke-width="1"/>
  <text x="498" y="88" font-family="Arial, sans-serif" font-size="8" font-weight="600" fill="#94A3B8">면접 예정</text>
  <text x="498" y="116" font-family="Arial, sans-serif" font-size="28" font-weight="700" fill="#8B5CF6">2</text>
  <text x="498" y="132" font-family="Arial, sans-serif" font-size="8" fill="#94A3B8">건</text>
  <rect x="578" y="76" width="28" height="28" rx="6" fill="#F5F3FF"/>
  <rect x="585" y="84" width="14" height="12" rx="2" fill="#8B5CF6"/>

  <!-- 카드4: 체크리스트 -->
  <rect x="628" y="68" width="132" height="78" rx="8" fill="#FFFFFF" stroke="#D6E8F5" stroke-width="1"/>
  <text x="642" y="88" font-family="Arial, sans-serif" font-size="8" font-weight="600" fill="#94A3B8">체크리스트</text>
  <text x="642" y="116" font-family="Arial, sans-serif" font-size="28" font-weight="700" fill="#22C55E">67%</text>
  <text x="642" y="132" font-family="Arial, sans-serif" font-size="8" fill="#94A3B8">6/9 완료</text>
  <rect x="722" y="76" width="28" height="28" rx="6" fill="#F0FDF4"/>
  <rect x="729" y="84" width="14" height="12" rx="2" fill="#22C55E"/>

  <!-- 최근 지원 현황 카드 -->
  <rect x="196" y="160" width="350" height="200" rx="8" fill="#FFFFFF" stroke="#D6E8F5" stroke-width="1"/>
  <text x="214" y="184" font-family="Arial, sans-serif" font-size="12" font-weight="700" fill="#1A1A2E">최근 지원 현황</text>
  <text x="490" y="184" font-family="Arial, sans-serif" font-size="10" fill="#1E9BD7">전체 보기</text>

  <!-- 구분선 -->
  <line x1="210" y1="192" x2="536" y2="192" stroke="#F1F5F9" stroke-width="1"/>

  <!-- 지원 목록 행 1 -->
  <text x="214" y="212" font-family="Arial, sans-serif" font-size="11" font-weight="600" fill="#1A1A2E">카카오</text>
  <text x="214" y="226" font-family="Arial, sans-serif" font-size="9" fill="#94A3B8">UX/UI 디자이너</text>
  <rect x="450" y="202" width="60" height="20" rx="10" fill="#F5F3FF"/>
  <text x="468" y="216" font-family="Arial, sans-serif" font-size="9" font-weight="600" fill="#8B5CF6">면접 예정</text>

  <line x1="210" y1="234" x2="536" y2="234" stroke="#F1F5F9" stroke-width="1"/>

  <!-- 지원 목록 행 2 -->
  <text x="214" y="254" font-family="Arial, sans-serif" font-size="11" font-weight="600" fill="#1A1A2E">토스</text>
  <text x="214" y="268" font-family="Arial, sans-serif" font-size="9" fill="#94A3B8">프로덕트 디자이너</text>
  <rect x="447" y="244" width="63" height="20" rx="10" fill="#FFFBEB"/>
  <text x="457" y="258" font-family="Arial, sans-serif" font-size="9" font-weight="600" fill="#F59E0B">서류 진행</text>

  <line x1="210" y1="276" x2="536" y2="276" stroke="#F1F5F9" stroke-width="1"/>

  <!-- 지원 목록 행 3 -->
  <text x="214" y="296" font-family="Arial, sans-serif" font-size="11" font-weight="600" fill="#1A1A2E">네이버</text>
  <text x="214" y="310" font-family="Arial, sans-serif" font-size="9" fill="#94A3B8">웹 퍼블리셔</text>
  <rect x="447" y="286" width="63" height="20" rx="10" fill="#E0F4FF"/>
  <text x="457" y="300" font-family="Arial, sans-serif" font-size="9" font-weight="600" fill="#1E9BD7">지원 완료</text>

  <line x1="210" y1="318" x2="536" y2="318" stroke="#F1F5F9" stroke-width="1"/>

  <!-- 지원 목록 행 4 -->
  <text x="214" y="338" font-family="Arial, sans-serif" font-size="11" font-weight="600" fill="#1A1A2E">당근마켓</text>
  <text x="214" y="352" font-family="Arial, sans-serif" font-size="9" fill="#94A3B8">프론트엔드 개발자</text>
  <rect x="460" y="328" width="50" height="20" rx="10" fill="#F1F5F9"/>
  <text x="474" y="342" font-family="Arial, sans-serif" font-size="9" font-weight="600" fill="#94A3B8">관심</text>

  <!-- 상태별 현황 카드 -->
  <rect x="558" y="160" width="202" height="200" rx="8" fill="#FFFFFF" stroke="#D6E8F5" stroke-width="1"/>
  <text x="574" y="184" font-family="Arial, sans-serif" font-size="12" font-weight="700" fill="#1A1A2E">상태별 현황</text>

  <!-- 프로그레스 바들 -->
  <text x="574" y="210" font-family="Arial, sans-serif" font-size="9" font-weight="600" fill="#1A1A2E">면접 예정</text>
  <rect x="574" y="215" width="170" height="6" rx="3" fill="#F1F5F9"/>
  <rect x="574" y="215" width="40" height="6" rx="3" fill="#8B5CF6"/>
  <text x="720" y="222" font-family="Arial, sans-serif" font-size="8" fill="#94A3B8">2건</text>

  <text x="574" y="238" font-family="Arial, sans-serif" font-size="9" font-weight="600" fill="#1A1A2E">서류 진행</text>
  <rect x="574" y="243" width="170" height="6" rx="3" fill="#F1F5F9"/>
  <rect x="574" y="243" width="55" height="6" rx="3" fill="#F59E0B"/>
  <text x="720" y="250" font-family="Arial, sans-serif" font-size="8" fill="#94A3B8">3건</text>

  <text x="574" y="266" font-family="Arial, sans-serif" font-size="9" font-weight="600" fill="#1A1A2E">지원 완료</text>
  <rect x="574" y="271" width="170" height="6" rx="3" fill="#F1F5F9"/>
  <rect x="574" y="271" width="75" height="6" rx="3" fill="#1E9BD7"/>
  <text x="720" y="278" font-family="Arial, sans-serif" font-size="8" fill="#94A3B8">4건</text>

  <text x="574" y="294" font-family="Arial, sans-serif" font-size="9" font-weight="600" fill="#1A1A2E">관심</text>
  <rect x="574" y="299" width="170" height="6" rx="3" fill="#F1F5F9"/>
  <rect x="574" y="299" width="30" height="6" rx="3" fill="#94A3B8"/>
  <text x="720" y="306" font-family="Arial, sans-serif" font-size="8" fill="#94A3B8">1건</text>

  <!-- 체크리스트 진행률 -->
  <text x="574" y="330" font-family="Arial, sans-serif" font-size="11" font-weight="700" fill="#1A1A2E">체크리스트</text>
  <rect x="574" y="338" width="170" height="10" rx="5" fill="#F1F5F9"/>
  <rect x="574" y="338" width="114" height="10" rx="5" fill="#22C55E"/>
  <text x="574" y="362" font-family="Arial, sans-serif" font-size="9" fill="#94A3B8">6/9 항목 완료 (67%)</text>

  <!-- 하단 브랜딩 -->
  <rect x="0" y="430" width="800" height="20" fill="#1E9BD7" opacity="0.08"/>
  <text x="400" y="443" font-family="Arial, sans-serif" font-size="9" fill="#1E9BD7" text-anchor="middle" font-weight="600">JobFlow Dashboard · React + Vite + MUI + Supabase</text>
</svg>
