<svg width="1200" height="800" viewBox="0 0 1200 800" fill="none" xmlns="http://www.w3.org/2000/svg">
  <defs>
    <linearGradient id="bg" x1="0" y1="0" x2="1200" y2="800" gradientUnits="userSpaceOnUse">
      <stop stop-color="#EEF2FF"/>
      <stop offset="0.48" stop-color="#F8FAFC"/>
      <stop offset="1" stop-color="#E0F2FE"/>
    </linearGradient>
    <linearGradient id="hero" x1="92" y1="86" x2="1108" y2="326" gradientUnits="userSpaceOnUse">
      <stop stop-color="#4F46E5"/>
      <stop offset="1" stop-color="#0EA5E9"/>
    </linearGradient>
    <linearGradient id="card1" x1="0" y1="0" x2="1" y2="1">
      <stop stop-color="#6366F1"/>
      <stop offset="1" stop-color="#8B5CF6"/>
    </linearGradient>
    <linearGradient id="card2" x1="0" y1="0" x2="1" y2="1">
      <stop stop-color="#0EA5E9"/>
      <stop offset="1" stop-color="#06B6D4"/>
    </linearGradient>
    <linearGradient id="card3" x1="0" y1="0" x2="1" y2="1">
      <stop stop-color="#10B981"/>
      <stop offset="1" stop-color="#3B82F6"/>
    </linearGradient>
    <filter id="shadow" x="-20%" y="-20%" width="140%" height="140%">
      <feDropShadow dx="0" dy="18" stdDeviation="22" flood-color="#0F172A" flood-opacity="0.16"/>
    </filter>
  </defs>

  <rect width="1200" height="800" rx="48" fill="url(#bg)"/>

  <rect x="92" y="86" width="1016" height="242" rx="36" fill="url(#hero)" filter="url(#shadow)"/>
  <text x="144" y="164" fill="white" font-family="Inter, Pretendard, Arial, sans-serif" font-size="42" font-weight="800">Portfolio Feedback Hub</text>
  <text x="144" y="213" fill="#E0F2FE" font-family="Inter, Pretendard, Arial, sans-serif" font-size="24" font-weight="500">포트폴리오 피드백을 주고받는 커뮤니티형 웹앱</text>

  <rect x="144" y="252" width="166" height="44" rx="22" fill="white" fill-opacity="0.22"/>
  <text x="170" y="281" fill="white" font-family="Inter, Pretendard, Arial, sans-serif" font-size="18" font-weight="700">UX/UI Review</text>
  <rect x="328" y="252" width="142" height="44" rx="22" fill="white" fill-opacity="0.22"/>
  <text x="354" y="281" fill="white" font-family="Inter, Pretendard, Arial, sans-serif" font-size="18" font-weight="700">Job Prep</text>
  <rect x="488" y="252" width="162" height="44" rx="22" fill="white" fill-opacity="0.22"/>
  <text x="514" y="281" fill="white" font-family="Inter, Pretendard, Arial, sans-serif" font-size="18" font-weight="700">AI Coding</text>

  <rect x="92" y="370" width="1016" height="82" rx="28" fill="white" filter="url(#shadow)"/>
  <rect x="136" y="398" width="360" height="26" rx="13" fill="#E2E8F0"/>
  <rect x="526" y="398" width="116" height="28" rx="14" fill="#EEF2FF"/>
  <rect x="658" y="398" width="116" height="28" rx="14" fill="#ECFEFF"/>
  <rect x="790" y="398" width="116" height="28" rx="14" fill="#F0FDF4"/>
  <rect x="924" y="398" width="124" height="28" rx="14" fill="#F8FAFC" stroke="#CBD5E1"/>

  <g filter="url(#shadow)">
    <rect x="92" y="496" width="308" height="218" rx="30" fill="white"/>
    <rect x="116" y="520" width="260" height="74" rx="22" fill="url(#card1)"/>
    <text x="143" y="568" fill="white" font-family="Inter, Pretendard, Arial, sans-serif" font-size="22" font-weight="800">Portfolio Review</text>
    <rect x="116" y="616" width="126" height="24" rx="12" fill="#EEF2FF"/>
    <rect x="116" y="654" width="226" height="18" rx="9" fill="#CBD5E1"/>
    <rect x="116" y="686" width="180" height="16" rx="8" fill="#E2E8F0"/>
  </g>

  <g filter="url(#shadow)">
    <rect x="446" y="496" width="308" height="218" rx="30" fill="white"/>
    <rect x="470" y="520" width="260" height="74" rx="22" fill="url(#card2)"/>
    <text x="497" y="568" fill="white" font-family="Inter, Pretendard, Arial, sans-serif" font-size="22" font-weight="800">Figma Feedback</text>
    <rect x="470" y="616" width="104" height="24" rx="12" fill="#ECFEFF"/>
    <rect x="470" y="654" width="220" height="18" rx="9" fill="#CBD5E1"/>
    <rect x="470" y="686" width="194" height="16" rx="8" fill="#E2E8F0"/>
  </g>

  <g filter="url(#shadow)">
    <rect x="800" y="496" width="308" height="218" rx="30" fill="white"/>
    <rect x="824" y="520" width="260" height="74" rx="22" fill="url(#card3)"/>
    <text x="851" y="568" fill="white" font-family="Inter, Pretendard, Arial, sans-serif" font-size="22" font-weight="800">Job Prep</text>
    <rect x="824" y="616" width="116" height="24" rx="12" fill="#F0FDF4"/>
    <rect x="824" y="654" width="222" height="18" rx="9" fill="#CBD5E1"/>
    <rect x="824" y="686" width="172" height="16" rx="8" fill="#E2E8F0"/>
  </g>

  <circle cx="982" cy="164" r="44" fill="white" fill-opacity="0.18"/>
  <path d="M964 164h36M982 146v36" stroke="white" stroke-width="8" stroke-linecap="round"/>
</svg>
